
<global>
amp_veltrack=0
ampeg_release=0.35
</global>

<group>
group_label=PP
lpc_hicc1=42
lpc_locc1=0

<region>
hikey=a3
hivel=127
lokey=g#3
lovel=1
lpc=i+ciQdn54sG5kRBCK1rfwaP5aUHm3K/AIIyMP025xr/CPJNAdNKmwL2LTkCxmNW/aZOkPsMUMj/UCq0/FkuuwIAE+0BPwNrAHqKJQEiTOL8q04HAhM3QQJvNmsDiB9M/
lpc_rms=-33.56
pitch_keycenter=a3
sample=Violin2Solo_trill_perf4th_PP_A3.opus
</region>

<region>
hikey=a4
hivel=127
lokey=g#4
lovel=1
lpc=lGelQG0hQME7B2dBXjBIwQ6mHkEzqsnAoY4jQLeikr+/trE/QDzMv5P6sz8QZZK/t21EP5lbW78ODJ8/Tzh3v6NYTj+48GG/6minP1iGDL/V1SO/KUdFPxbwJj74c3e+
lpc_rms=-33.17
pitch_keycenter=a4
sample=Violin2Solo_trill_perf4th_PP_A4.opus
</region>

<region>
hikey=a5
hivel=127
lokey=g#5
lovel=1
lpc=/dqWQAy72MBT99NALaaHwKemf0DNQSPA1tEaQPG43L89zCVAgEGsvzyX6T8OvPS/XaU0QKUq5L8nXxBA1LRTv6ld4D5AUpo/hHfBvk/XuD+EPAzA9PgiQB6wcL8Kj4c/
lpc_rms=-32.68
pitch_keycenter=a5
sample=Violin2Solo_trill_perf4th_PP_A5.opus
</region>

<region>
hikey=a6
hivel=127
lokey=g#6
lovel=1
lpc=C3v+QP922cDkiaBALxSAv3RPKECj+w7AfNBuQJSqhb7d0JY/fDB3PonOCsDXN8A/eHrkP05qosD+Apg/RS0SQCp8AcDSONA+ecHVPoYBMj/dUx3A8CUIQC5Y2b9A6l1A
lpc_rms=-30.81
pitch_keycenter=a6
sample=Violin2Solo_trill_perf4th_PP_A6.opus
</region>

<region>
hikey=b3
hivel=127
lokey=a#3
lovel=1
lpc=ltggQREu4sGwQBJCBAHhwfhOWEFBg5fAIrFPQM+nosDHQMhA2CuIwP//iL5bZk1A+nwkwBZrdT+OH2Q/g/lZwFluwkDtgs7AgDV3QI3ME7+jhBjAG01PQJaxDcA4FkQ/
lpc_rms=-33.32
pitch_keycenter=b3
sample=Violin2Solo_trill_perf4th_PP_B3.opus
</region>

<region>
hikey=b4
hivel=127
lokey=a#4
lovel=1
lpc=hh2DQLJwC8Fblx9BU7MBwWcUu0AftEvAbv2DP64cJz43Yi2+olvfvWfOjD2qpwU+c/AIvqgb2z4QUU6+fhgev6N12D8TayPAeslTQKEFHMBH/nw/QBi9vpISOz+mocK+
lpc_rms=-37.88
pitch_keycenter=b4
sample=Violin2Solo_trill_perf4th_PP_B4.opus
</region>

<region>
hikey=b5
hivel=127
lokey=a#5
lovel=1
lpc=8fCcQCIl4MAhar9AA/B+wHl+KUDOH4C/he/KP/3JUL+G0W8/GfWMv64X1T8/zmy/ktipP6+s/r6PMWA/ee5xv+rAtD+O6xu+JMxzv5aPxz8WcIW/6rI+PzeSUT909oi/
lpc_rms=-32.39
pitch_keycenter=b5
sample=Violin2Solo_trill_perf4th_PP_B5.opus
</region>

<region>
hikey=C7
hivel=127
lokey=a#6
lovel=1
lpc=2aH0QKLy3MA21IxAbsXBPECu574TrLo/bFctQAMa0r9o0To/U9MRwP/YS0Bm6Ma/zEN1wDaIoUAMjD7ANxQSP93ngj/Aa72/5hNvvygyfz/a2XY/zvDYP1Tew79jZii+
lpc_rms=-32.31
pitch_keycenter=B6
sample=Violin2Solo_trill_perf4th_PP_B6.opus
</region>

<region>
hikey=c#4
hivel=127
lokey=c4
lovel=1
lpc=E/OnQbW4dcJnC59Cz4Z2wtMUCELhq4nBr8k1QbMbbsEmY5BBBtMvwROzdb92KdlAIt5xwBOtLsDYTghBs/IoweTqKUHHwBDBIgnNQDIsAb8zoBPBwU1cQR+8D8G9UBNA
lpc_rms=-25.65
pitch_keycenter=c#4
sample=Violin2Solo_trill_perf4th_PP_C#4.opus
</region>

<region>
hikey=c#5
hivel=127
lokey=c5
lovel=1
lpc=koEfQY/avsHXXuJBUtyywb94ZEGCnNrApi2jP5CtRr/O4kRAfCY+wBXuIL/iHxxAf3Jyv6U39L5xOOY/hbJ6wP/T0kBmR9rAhRnPQA1MjcA/lKA/az5YPqSKWT68KOE9
lpc_rms=-30.59
pitch_keycenter=c#5
sample=Violin2Solo_trill_perf4th_PP_C#5.opus
</region>

<region>
hikey=c#6
hivel=127
lokey=c6
lovel=1
lpc=RSjCQMitHMGdXwNBzb+HwNMJXECqgaK/ZdeeP8xdS7954eA/84WVvis4lz/lslW/TrMLQBjIg79NKsY/wLBNv0Mc4T4E8pE/jscGPyLHj79hejNALwyswGmMtECVQte/
lpc_rms=-30.51
pitch_keycenter=c#6
sample=Violin2Solo_trill_perf4th_PP_C#6.opus
</region>

<region>
hikey=d#4
hivel=127
lokey=d4
lovel=1
lpc=K7EGQaRWucG5lelB3Ae0wSzhW0Ffiw/BzJ6/QJeck8A8oZJAqDF8wAIhxz+ToeY/6EBbwFaE6T99j6I/Cd1NwPsId0AaS03AZAfOP5U1Gr7Fxlm/D7zDP57+rb9fiQE/
lpc_rms=-33.92
pitch_keycenter=d#4
sample=Violin2Solo_trill_perf4th_PP_D#4.opus
</region>

<region>
hikey=d#5
hivel=127
lokey=d5
lovel=1
lpc=MSe5QAJFTMF+Hm1BbJtIwWpBG0GaiMrA/f9OQMlgkr+zvo8/baOnv9WfYz4CzLA/C/dcv5lRAj11Z8O9sKuDPwEKN78jNru8fsiHPye0hL+cSZU/bzvMv/Wj2D+Fkxe/
lpc_rms=-35.14
pitch_keycenter=d#5
sample=Violin2Solo_trill_perf4th_PP_D#5.opus
</region>

<region>
hikey=d#6
hivel=127
lokey=d6
lovel=1
lpc=cKm+QDRVJMHXhBdB0FZgwLAkHEAhP6e/7cWsPzRfLT8x0Uc/brkzPv9CZj/LFoI+KIrFP+dLpb4wrJI9MRiXP9nY1D9ONvm/vDckQIh2lcBNbfpAUrytwGWSsj/qcE0/
lpc_rms=-31.59
pitch_keycenter=d#6
sample=Violin2Solo_trill_perf4th_PP_D#6.opus
</region>

<region>
hikey=f4
hivel=127
lokey=e4
lovel=1
lpc=fDrvQNfnncHXVb9B3YSMwSmmHUEOd6/AGQ5JQHdEScCReYpAlWt7wIEJ/j/Yh+g9G/e0v5CpZT9AvKY/aPBVwGoVgUBWqGXAyAk7QANy37+l1Mq+XNM0QEjQN8CLm3I/
lpc_rms=-35.31
pitch_keycenter=f4
sample=Violin2Solo_trill_perf4th_PP_F4.opus
</region>

<region>
hikey=f5
hivel=127
lokey=e5
lovel=1
lpc=6AJ+QMwkz8C52rRA8ZE9wIfGA0DooHe/h+95Prrw6b763pI/14CHv5TnTj8Etz+/CxiDP7bew7+XA+8/tLZsvyStCz+zbNM+aIrxvik0jT8InFu/O8JbPv2WVD+11QC/
lpc_rms=-34.94
pitch_keycenter=f5
sample=Violin2Solo_trill_perf4th_PP_F5.opus
</region>

<region>
hikey=f6
hivel=127
lokey=e6
lovel=1
lpc=+VaHQNEUqsBMc3tAQSunvyq/NEAChwrAAogVQP8SJL/7eZ4/UQmPPru9kj9IWQ++v6WjPwQg1L9nPRtAlJk5vzEO6D/rOHHAtC6DQP8s8L8wL2s/k/apvxWp+j+Otpu/
lpc_rms=-32.60
pitch_keycenter=f6
sample=Violin2Solo_trill_perf4th_PP_F6.opus
</region>

<region>
hivel=127
key=g3
lovel=1
lpc=M94SQYhq0cGy0ApCGMPewRXXa0EJXb3AMk9gQEVUlcBQC7FAYBhWwGr2pb/qOopARXVWwBuRBD+ZDyhA1neowLFc10B3eM/AlY2LQFAjWr9cDB/AxxlxQEmNIsCc/iY/
lpc_rms=-33.22
sample=Violin2Solo_trill_perf4th_PP_G3.opus
</region>

<region>
hikey=g4
hivel=127
lokey=f#4
lovel=1
lpc=T7L9QEE1p8FVrMxBmzybwX7kPkFuXPrAOIyMQKvT2b+ZP60/C33Lv2FC5b5UxyZAXREQwPi0oz0WQQdAuHZiwLBrj0AL7nbATwDrPz8F0T6PMu+/zPIwQDzV9r8W7PQ+
lpc_rms=-34.32
pitch_keycenter=g4
sample=Violin2Solo_trill_perf4th_PP_G4.opus
</region>

<region>
hikey=g5
hivel=127
lokey=f#5
lovel=1
lpc=ZwaEQLr4vcAkFJBAnU8QwPb90D+Q9Zs7wFMRvRhK3r2BQMw9J+KQP2tUbL9fJ4o/adQhPkgVqb87qx9Aza+wv3WSmD9FIYq//8mfP3FJFD90jqS/AnrhP9FzE8BJJME/
lpc_rms=-32.56
pitch_keycenter=g5
sample=Violin2Solo_trill_perf4th_PP_G5.opus
</region>

<region>
hikey=g6
hivel=127
lokey=f#6
lovel=1
lpc=9APvQKIKFcFMsPBAilAbwAKog0DtF0vAI20sQIRtoj+YF3Q/J0iNvz7HC0D/XCzAbQ1HQBTB578hW7A/a4vKwET4y0AEN3rAUcMIP/JgHcCh4N8/3LYMvyJZNMCWGAg/
lpc_rms=-32.94
pitch_keycenter=g6
sample=Violin2Solo_trill_perf4th_PP_G6.opus
</region>
</group>

<group>
group_label=MF
lpc_hicc1=84
lpc_locc1=43

<region>
hikey=a3
hivel=127
lokey=g#3
lovel=1
lpc=BtYuQcKM8sG/dxZCrrXXwVdUTEEtiM7Ae1WYQEqzV8AlS/g/DCP3vgrs37/odU9A+iE9wDIesj/lcL8/rXV9wIeRpUCRY5bAp3JKQBa+g7+QeZa/r4MRQOfx8L8VYDA/
lpc_rms=-26.56
pitch_keycenter=a3
sample=Violin2Solo_trill_perf4th_MF_A3.opus
</region>

<region>
hikey=a4
hivel=127
lokey=g#4
lovel=1
lpc=NkOSQB8RGMGCnRlBnCjVwPIJoUDzOWPAeHfIP/w0BcBhXUdA4kTzvxfYQT68XI093NGkPnu+bL9cTgVAF0U0wK4/PEB8zQjAW2CZP0ufU760sto845nfvaqlNT60RqO9
lpc_rms=-26.22
pitch_keycenter=a4
sample=Violin2Solo_trill_perf4th_MF_A4.opus
</region>

<region>
hikey=a5
hivel=127
lokey=g#5
lovel=1
lpc=tcaAQEePp8AoQ6VAZoE6wAsZDECRsYa/Bie6P1AqT79cSVQ/3CUUP6imdb2vp4U+6tA8PxK+b76jiIg/pBsKvvdEtT7LHDU/0RaaPVOxWj80NKi/rtPvP38ThL9tK6Q/
lpc_rms=-24.65
pitch_keycenter=a5
sample=Violin2Solo_trill_perf4th_MF_A5.opus
</region>

<region>
hikey=a6
hivel=127
lokey=g#6
lovel=1
lpc=fu/UQBeercAPpqxAUb2Bv7LRHkAn4QO/AalFQOul9T39CMc/XHT6P0npKcAZ6wZAMXTIP2utd8Dur1Q/3NGnPxFf0r84e9Y9HRMVPrcEp772xrq/O2mwP3aTNMAKrT9A
lpc_rms=-25.34
pitch_keycenter=a6
sample=Violin2Solo_trill_perf4th_MF_A6.opus
</region>

<region>
hikey=b3
hivel=127
lokey=a#3
lovel=1
lpc=a2wUQX2r0MGWfQdCiTLPweL7REGIz4rAZ+cbQI/fJcBelAJAy9CivhYPIMDHWnhA7kEhwNCQ6D4joRdAUiehwDjOuUB4VZvAWgpgQGUl07/yaYK/UDUXQHHA5L+qTxA/
lpc_rms=-25.57
pitch_keycenter=b3
sample=Violin2Solo_trill_perf4th_MF_B3.opus
</region>

<region>
hikey=b4
hivel=127
lokey=a#4
lovel=1
lpc=btmXQC2uH8HoZyNBrpTZwCNckkBTO1/Ao+8GQOBxU78W6YI//cSMv/9FLz9+MdY9LWY9vOmh3b2JCVg/qb6+v1B56j/+SMm/6364P36ghL/RZes90sKaPqlXgT4QlHy+
lpc_rms=-28.76
pitch_keycenter=b4
sample=Violin2Solo_trill_perf4th_MF_B4.opus
</region>

<region>
hikey=b5
hivel=127
lokey=a#5
lovel=1
lpc=75N8QDMJs8AV3qRAY/4+wA2A0T+N+dy+WgWLP0duab91U4E/Aww5PlYPMb7rSD4/wu/GPl1XI7+nmno/JVivPg9mtL5e/TA/uBaXv7VIAEDzMsC/wuzOPz9j9r4gBYW+
lpc_rms=-23.92
pitch_keycenter=b5
sample=Violin2Solo_trill_perf4th_MF_B5.opus
</region>

<region>
hikey=C7
hivel=127
lokey=a#6
lovel=1
lpc=nLrGQAy1ssBB9Z5AnuUCvbW7YL66jOE/gfu8P/kiJL8co7g/F91ZwJVjPEB0eLS/s1mUwPKfdUAxgjrApbeiv1BrcT8T8tS/zX6lv8TTPT/fCYy/Ipo4QLhmBMDwIjE/
lpc_rms=-26.59
pitch_keycenter=B6
sample=Violin2Solo_trill_perf4th_MF_B6.opus
</region>

<region>
hikey=c#4
hivel=127
lokey=c4
lovel=1
lpc=3nhyQf68LsKBZWNCXPwtwqaJrUGpBhDBo6KRQFuLpMBcWOlAvwHLwAuMnz+hqiBARfU6wBQPJkAf8As/oxG3wKXIGkEwggzBNL6VQIqpiL6aiUvAvaRoQPfwx783jYI9
lpc_rms=-20.92
pitch_keycenter=c#4
sample=Violin2Solo_trill_perf4th_MF_C#4.opus
</region>

<region>
hikey=c#5
hivel=127
lokey=c5
lovel=1
lpc=pbTVQFmoecG3S4lBnNw8wRrz2UDRpn/AzGeOP58whD0zvt0/AzIewIJGfD8yEuc+XAEHv3/fl76rew9AfquIwC7Mq0BRIo3AUS0gQBAYc79I84e9dQKJP3Whib9dniQ/
lpc_rms=-21.26
pitch_keycenter=c#5
sample=Violin2Solo_trill_perf4th_MF_C#5.opus
</region>

<region>
hikey=c#6
hivel=127
lokey=c6
lovel=1
lpc=X5akQCXSAsH0HwBB+BWiwE1gYED/M6K+Y/OrPiwtXj5hzGw/lpjtPv+TLD8J30o98dfmP9c5ib+zdt8/dHk0Pk2sQr8Jdds//l35PlFhUb8+ZCFAB8NnwKP8P0BJxL69
lpc_rms=-21.38
pitch_keycenter=c#6
sample=Violin2Solo_trill_perf4th_MF_C#6.opus
</region>

<region>
hikey=d#4
hivel=127
lokey=d4
lovel=1
lpc=vuLuQFxrm8H74LlBYpiIwTDLH0FvGtfA8LSbQJ/hfcBjt49AKBCNwEhTA0BN7R4/vQtyv+3tFr8WoABAVX82wI63ckDG2lTAvQj0P6Wb8b5A8Ya/3WXoP4MpsL+kCs0+
lpc_rms=-25.92
pitch_keycenter=d#4
sample=Violin2Solo_trill_perf4th_MF_D#4.opus
</region>

<region>
hikey=d#5
hivel=127
lokey=d5
lovel=1
lpc=U6WZQO/CHsFCqyJByvbbwK/EmkChXlPA66LtPz+ay79mSQBADfVzvxJ35r0T6vQ+2hiLvgxwx73+JIY/2cOavxPtgT/TFUG/h+6LPyLXFb/VPBI/mUlrv40ohT91vY++
lpc_rms=-26.17
pitch_keycenter=d#5
sample=Violin2Solo_trill_perf4th_MF_D#5.opus
</region>

<region>
hikey=d#6
hivel=127
lokey=d6
lovel=1
lpc=z0vKQMLVHcH+lhZBc2RywOYSXUDV/Ae/6p2DPkLh6T96shxA/s1tv1EuyT8tTqk/Gj8KQMpVIb8MvKg/qsl1P6hTS0BiGiLASSthQMapj8AsrOdALARcwIkqnb3+Ltw/
lpc_rms=-22.50
pitch_keycenter=d#6
sample=Violin2Solo_trill_perf4th_MF_D#6.opus
</region>

<region>
hikey=f4
hivel=127
lokey=e4
lovel=1
lpc=e1PfQHtej8HT46hBlAtzwePYDkHu7r3AAAFeQEAmAsDE5kFAQQVtwGCvwj9kF7c/CagcwGNOsj+ikTo/N0kawG54SkAsiA3AnSkBP17IiT80Ih3AUCwuQMNwxL+Tg6M+
lpc_rms=-29.51
pitch_keycenter=f4
sample=Violin2Solo_trill_perf4th_MF_F4.opus
</region>

<region>
hikey=f5
hivel=127
lokey=e5
lovel=1
lpc=wWFeQHK3r8BuiZVADKYRwECypT9cGRe/9n31Ph6eDb/plyI/FbOovc2Sg77adqo+La0cPpD1iL9STeQ/N2B9v7jAIz/2y4U+3FPfvtEcXD87h8m+A+2gvs/IgT/Sdga/
lpc_rms=-23.61
pitch_keycenter=f5
sample=Violin2Solo_trill_perf4th_MF_F5.opus
</region>

<region>
hikey=f6
hivel=127
lokey=e6
lovel=1
lpc=0jqKQN/pk8AOwZBAf3eivzCuWEBEe7S/S0c0QLc+Kb8n/VlAcCzfvcz4yT9/TLw/jzSeP1cgL74rRE5AGnkdvzB7JkB+YCzAKZOEQGpanr/XugBAvezfv54ZDkDJfD09
lpc_rms=-26.25
pitch_keycenter=f6
sample=Violin2Solo_trill_perf4th_MF_F6.opus
</region>

<region>
hivel=127
key=g3
lovel=1
lpc=gd8lQYBc9sEy4ihC8PgJwieSlkGyfxjBf8wBQaGYEMHXdg9BYGHXwCQSFkCfDFI/UNG1v3DP2T/k7L+/qrovvWNoBUCDSTbAdnzgPz51Dz9SdDTAn5R9QKquQsBX0Go/
lpc_rms=-27.97
sample=Violin2Solo_trill_perf4th_MF_G3.opus
</region>

<region>
hikey=g4
hivel=127
lokey=f#4
lovel=1
lpc=2dbUQKrbh8GeQ6FBW9NowT+0BUEgDqbARNcpQAo1gb+PQr0/QUcVwGzY0T9YZW++6TXhvvkfIr5FW9Y/SYVewKxvl0DB+W/AXGvAP/AZ7D6168W/a1b4PwJiub9A8hA/
lpc_rms=-28.40
pitch_keycenter=g4
sample=Violin2Solo_trill_perf4th_MF_G4.opus
</region>

<region>
hikey=g5
hivel=127
lokey=f#5
lovel=1
lpc=oG5sQEkdsMCxm5lArLklwEuO9j/azre/S7kFQPLW7r+4EbE/n9CYPLieoL51EWI/8ULCvnaEED7wKgI/iBDBPWzFhb52B2o/yDIyv1LflT+/ImK/c/yHPxqsrL/y1BI/
lpc_rms=-23.32
pitch_keycenter=g5
sample=Violin2Solo_trill_perf4th_MF_G5.opus
</region>

<region>
hikey=g6
hivel=127
lokey=f#6
lovel=1
lpc=Lp1tQEQb+r/4XfE/uBYVPhPwAEBrPEY+dbSqPxWwCj8VU/Q/k7lGPua3xz8g7lO/S0+iP04OCD3Hl1U/G2MKwLAVZz/sGQW/VA0/vReXXb/u1p09ypY4v5q4tr4hlY+/
lpc_rms=-26.49
pitch_keycenter=g6
sample=Violin2Solo_trill_perf4th_MF_G6.opus
</region>
</group>

<group>
group_label=FF
lpc_hicc1=127
lpc_locc1=85

<region>
hikey=a3
hivel=127
lokey=g#3
lovel=1
lpc=2nMhQYDd28FdhgdCgMvGwVC+SEHJ/dHAxJuYQDH0hcDS+XxAQwlEwLcFjT+PDFA/O/nBv/18dz4qgzxAvKW1wGnt1kAQe63ApY81QLv5Nr5+2BvAIO2AQNU9VsBGep0/
lpc_rms=-22.38
pitch_keycenter=a3
sample=Violin2Solo_trill_perf4th_FF_A3.opus
</region>

<region>
hikey=a4
hivel=127
lokey=g#4
lovel=1
lpc=xGcDQQwarMGIUNdBR9GnwQf5UUGlNg3B36zAQLo0XsB62wZAXtTPv+m4Zb0H9h1AGcBOwD698j+9xi0/m0pEwHn+kECRgWTApwvgPzOJXLyJ0Cy/vLRXP4B2Hr86sKs+
lpc_rms=-24.25
pitch_keycenter=a4
sample=Violin2Solo_trill_perf4th_FF_A4.opus
</region>

<region>
hikey=a5
hivel=127
lokey=g#5
lovel=1
lpc=SLVxQDD+oMDHCpVAfkkUwLDY3j+jwym/VGOPP0CaLr/LBG8/CQfcPiAenL7A7OY+gahtP51QPL9Rhow/c0rqPjK6376+f3A/YQSDPhZs5D6uJUi/xHSbP3S9vL54Yls/
lpc_rms=-20.57
pitch_keycenter=a5
sample=Violin2Solo_trill_perf4th_FF_A5.opus
</region>

<region>
hikey=a6
hivel=127
lokey=g#6
lovel=1
lpc=9sbjQBhCrcBQ6rBANOQsvl8ACkADWDs+G6JeQHLztD6u4QlAONQCQGsuAsCIRAhAWhwBQL4VksB0xO8/xRJUP35O6b+NaeE+qJk8vtnhe76Iot6/CJeYP3i9J8ArEi5A
lpc_rms=-22.43
pitch_keycenter=a6
sample=Violin2Solo_trill_perf4th_FF_A6.opus
</region>

<region>
hikey=b3
hivel=127
lokey=a#3
lovel=1
lpc=zAwXQXHu3MHSVBhC0EoBwt+9m0HWxTDBD60BQQ4xzMAg/4VACAIBwEqvdb+KwTNA4471v+TCpjuEvxJAwTaVwB7QvUA5C6LAwJs6QKxmh7/ogSO7UqwHP2RMN7+6D5k+
lpc_rms=-22.58
pitch_keycenter=b3
sample=Violin2Solo_trill_perf4th_FF_B3.opus
</region>

<region>
hikey=b4
hivel=127
lokey=a#4
lovel=1
lpc=oguFQF6sCMFREQtBcb61wMq/aUAGqQ7ASoaZP8Jjm7/MLPo/jwvyvytnjT8DO6C+0LQ/PhuZu75NOIA/PqS1vx3v1D9Qa66/lB2NPw8bP77GsPC+3j2FPpAPDj8e4cW+
lpc_rms=-24.87
pitch_keycenter=b4
sample=Violin2Solo_trill_perf4th_FF_B4.opus
</region>

<region>
hikey=b5
hivel=127
lokey=a#5
lovel=1
lpc=mTB2QKyersAiTJFAXM02wElVCUBxGpK/Pa7ePxbCh7/ImJE/jvsMv9NCFD89oYm+Br+GP/rOOb8FVYc/HynXvnrpPD/Qc429V7dWv1KOgj9wDNO9VveFPclhPz/0Uz6/
lpc_rms=-20.10
pitch_keycenter=b5
sample=Violin2Solo_trill_perf4th_FF_B5.opus
</region>

<region>
hikey=C7
hivel=127
lokey=a#6
lovel=1
lpc=Yj2cQA8CTcAd5ntAzQp0PlKtHT+7EwJAv53bP0mz5z5sMyVA51odwMltSEBd5+m+7+0QwNZXE0DxRoC/CHs9v7BOkT+6B56/FJQUv6F/9z5MUqS/58YmQA+pjb+43cQ+
lpc_rms=-24.00
pitch_keycenter=B6
sample=Violin2Solo_trill_perf4th_FF_B6.opus
</region>

<region>
hikey=c#4
hivel=127
lokey=c4
lovel=1
lpc=tbaIQS+ZTcJ4ApBC7cN7wii6IEKRy7jBt+JZQY0AFcGUO/NADu24wKfHBz+kPYlAVzxswLG2pb3TK4BAg9TDwIJpA0EmERjBS9IHQatHkcDmtCM/fmxPPww3rL4d9my+
lpc_rms=-17.40
pitch_keycenter=c#4
sample=Violin2Solo_trill_perf4th_FF_C#4.opus
</region>

<region>
hikey=c#5
hivel=127
lokey=c5
lovel=1
lpc=d370QLBvjcHu0JNBv3IwwVJWoEDkWwzAXKWgvimnrj4zmyhApD6BwKdVFUA3Aa2+M7AJP7OMnL/Vn8I/kiwJwP8bcEDD12XA5CmpPwgFKj83L2a/Z+WIP0SOob9sdHQ/
lpc_rms=-18.78
pitch_keycenter=c#5
sample=Violin2Solo_trill_perf4th_FF_C#5.opus
</region>

<region>
hikey=c#6
hivel=127
lokey=c6
lovel=1
lpc=Oo2fQH526MBdjddA5v6IwOY9WkC0jyW/Sh56Pwy1eL4dVII/w1oiP3wkOz/qXpC8VmbCPwz9nr4cn6s/CJwEPuonUb/10RRAAlzFvtikrT6Yba8/tsw2wCZMLUDOZhg9
lpc_rms=-20.02
pitch_keycenter=c#6
sample=Violin2Solo_trill_perf4th_FF_C#6.opus
</region>

<region>
hikey=d#4
hivel=127
lokey=d4
lovel=1
lpc=jp4MQWBaysGPUgxClhL6wU0VqEFB11HBUHkIQfqytcCg9nRA8kAswEMCpD+Z1jA/yqXuvxZUaD+hmQVAhrGxwOm1/kCOT/PABSufQC1k4r+HJe++tMWaP1EFXL8R/JA+
lpc_rms=-20.02
pitch_keycenter=d#4
sample=Violin2Solo_trill_perf4th_FF_D#4.opus
</region>

<region>
hikey=d#5
hivel=127
lokey=d5
lovel=1
lpc=aG2bQMDcJMFyWjBBBST2wCcykkB1+QzA2eJyPycvGr+2Uog/CP1Kvyds6L2BDIs/HH+fv8Qt4z64I9c/pOEmwHXxFUBRONe/fK/MP77Enr/KWJs/0R+ivw24sT/tmfS+
lpc_rms=-22.33
pitch_keycenter=d#5
sample=Violin2Solo_trill_perf4th_FF_D#5.opus
</region>

<region>
hikey=d#6
hivel=127
lokey=d6
lovel=1
lpc=SJ6jQEu2A8HUsQpBs3SKwGMEUUBdxqO+qfo+P3NbUj/p5s4/gdP9ve8Zsj/wCyw/OrWaP+4khj7SAVE/8Ui0PiIHB0BIYbe/ioA7QEUwjMCMR7ZAiMkdwHtDm7twKHs/
lpc_rms=-19.66
pitch_keycenter=d#6
sample=Violin2Solo_trill_perf4th_FF_D#6.opus
</region>

<region>
hikey=f4
hivel=127
lokey=e4
lovel=1
lpc=Tr/oQH9Vn8EfMdBBMz+owda0R0Fle+XAvKWSQGTrOsAbkh5ADeoDwPH/Nj4zo7c/8DaUvw+vB78kGy1A+IKZwMZztEBCEmvA+XGgP/ewD79uOSE/l0JPvkO25b0lkto9
lpc_rms=-24.80
pitch_keycenter=f4
sample=Violin2Solo_trill_perf4th_FF_F4.opus
</region>

<region>
hikey=f5
hivel=127
lokey=e5
lovel=1
lpc=fEJEQJcvnsD5A4VAj3jyv+JNaj/Yxhu/2GtaP0prY78wKHE/TX0lv206+T5GHVu+lE4aP7Wzlr/yl88/iEKHvzMXKj8+2IS9ZbMaPj/tIrogx6c+Aepqv2Gzwz9rYDO/
lpc_rms=-22.67
pitch_keycenter=f5
sample=Violin2Solo_trill_perf4th_FF_F5.opus
</region>

<region>
hikey=f6
hivel=127
lokey=e6
lovel=1
lpc=EhCAQFDNZ8Dn9IVAjRq9v6amf0ACpBO/8gcRQIMuXj/UcR1AIkr3P3cuuz8KYwdAKwsdQCK/lL46R41AbCoCv7DIb0DdNAzAvuZ1QASrh77fW+4/JgXzvt/0aj/UuIg/
lpc_rms=-23.26
pitch_keycenter=f6
sample=Violin2Solo_trill_perf4th_FF_F6.opus
</region>

<region>
hivel=127
key=g3
lovel=1
lpc=VHwNQRe9wsFkP/VBCG+2we48OEFxnMLAmsSiQFqlpMAjgZRA8oUnwJjwF7/IFQ9ADga9v1jcvL6iGylAsq6GwOMnmkAbgYTA25Q6QF1Ou7+PdkC/nXonQDy9E8DY1D0/
lpc_rms=-22.30
sample=Violin2Solo_trill_perf4th_FF_G3.opus
</region>

<region>
hikey=g4
hivel=127
lokey=f#4
lovel=1
lpc=46UHQbo5vMGaM/dB6RvHwTkBdkEd7BzB5r/GQMelI8DZHF4/jWOhv7C6WTyuDQFAa2gJwIs7rz5JnRFAVIKbwKZUx0DTwo/A5Iq+P7aezz6aCSe/J14pPz93tr5f0hg8
lpc_rms=-23.15
pitch_keycenter=g4
sample=Violin2Solo_trill_perf4th_FF_G4.opus
</region>

<region>
hikey=g5
hivel=127
lokey=f#5
lovel=1
lpc=xCNTQNqfj8CKempAMQMCwDTI9D+eFLO/O/HPP+loib9pIB4/GAqlPo2KnL6F6Es/8+g2vpfEBr0pTdA+sVmSPnT7Br77T9U+cC5Evry6Vz++izi/O11YP7Wsi78F7vA+
lpc_rms=-20.85
pitch_keycenter=g5
sample=Violin2Solo_trill_perf4th_FF_G5.opus
</region>

<region>
hikey=g6
hivel=127
lokey=f#6
lovel=1
lpc=+dV1QC3FCsDMteg/BVwjP3mmwT9sj5o+6gqlP5p0iT44CxRAApKOPS+hoD/yP/i+Sh2LP/B+Sj3ipoA/H+AzwOO2rj/qy9S+QFbvvqWMH7/DJFa9eeg1vyBwjT0O5cW/
lpc_rms=-26.33
pitch_keycenter=g6
sample=Violin2Solo_trill_perf4th_FF_G6.opus
</region>
</group>